<?xml version="1.0" encoding="utf-8"?>
<!-- Generator: Adobe Illustrator 22.0.0, SVG Export Plug-In . SVG Version: 6.00 Build 0)  -->
<svg version="1.1" id="logo_x5F_4" xmlns="http://www.w3.org/2000/svg" xmlns:xlink="http://www.w3.org/1999/xlink" x="0px" y="0px"
	 viewBox="0 0 778.2 362.2" style="enable-background:new 0 0 778.2 362.2;" xml:space="preserve">
<style type="text/css">
	.st0{fill:#FFFFFF;}
</style>
<g>
	<path class="st0" d="M241.7,95.1c-9.7,5.2-20.8,7.9-33.1,7.9c-24.6,0-42.2-16.7-42.2-41.6c0-25.6,17.6-42.3,42.2-42.3
		c12.2,0,23.1,2.6,31.5,10l-10.5,10.6c-5.1-5-12.9-7.8-20.9-7.8c-16.5,0-27.4,12.6-27.4,28.5c0,17,10.9,29.7,27.4,29.7
		c7.2,0,13.8-1.4,18.7-4.2V67.1h-16.4V54.2h30.6V95.1z"/>
	<path class="st0" d="M268,78.6c0.9,8,7,12.9,14.6,12.9c6.8,0,11.2-3.2,14.6-7.3l9.7,7.3c-6.3,7.8-14.3,10.8-22.9,10.8
		c-16.4,0-29.5-11.4-29.5-28.4s13.1-28.4,29.5-28.4c15.1,0,25.4,10.6,25.4,29.5v3.7H268z M295.8,68.4c-0.1-7.9-5.3-12.9-13.8-12.9
		c-8,0-13,5.1-14,12.9H295.8z"/>
	<path class="st0" d="M321.4,46.8h12.9v8.5h0.2c2.4-5.1,7.6-9.8,16.6-9.8c8.3,0,14.1,3.3,16.9,10c3.9-6.9,9.7-10,17.8-10
		c14.4,0,19.5,10.3,19.5,23.2v32.3h-13.5V70.2c0-6.8-2-12.6-10-12.6c-8.5,0-11.6,7-11.6,14v29.3h-13.5V68.6c0-6.7-2.7-11.1-9.3-11.1
		c-8.9,0-12.4,6.5-12.4,13.8v29.6h-13.5V46.8z"/>
	<path class="st0" d="M431,78.6c0.9,8,7,12.9,14.6,12.9c6.8,0,11.2-3.2,14.6-7.3l9.7,7.3c-6.3,7.8-14.3,10.8-22.9,10.8
		c-16.4,0-29.5-11.4-29.5-28.4s13.1-28.4,29.5-28.4c15.1,0,25.4,10.6,25.4,29.5v3.7H431z M458.7,68.4c-0.1-7.9-5.3-12.9-13.8-12.9
		c-8,0-13,5.1-14,12.9H458.7z"/>
	<path class="st0" d="M495.7,78.6c0.9,8,7,12.9,14.6,12.9c6.8,0,11.2-3.2,14.6-7.3l9.7,7.3c-6.3,7.8-14.3,10.8-22.9,10.8
		c-16.4,0-29.5-11.4-29.5-28.4s13.1-28.4,29.5-28.4c15.1,0,25.4,10.6,25.4,29.5v3.7H495.7z M523.5,68.4c-0.1-7.9-5.3-12.9-13.8-12.9
		c-8,0-13,5.1-14,12.9H523.5z"/>
	<path class="st0" d="M549.7,46.8h12.9v8.7h0.2c2.5-5.4,7.6-10,16.6-10c14.6,0,19.7,10.3,19.7,21.3v34.2h-13.5V73.5
		c0-6-0.5-15.9-9.9-15.9c-8.9,0-12.4,6.5-12.4,13.8v29.6h-13.5V46.8z"/>
	<path class="st0" d="M608.1,58.3V46.8h11.2V31.1h13.5v15.7h14.9v11.5h-14.9V82c0,5.4,1.6,8.8,7.6,8.8c2.4,0,5.6-0.5,7.3-1.7v11.4
		c-2.8,1.4-7.6,1.8-10.7,1.8c-14.3,0-17.7-6.4-17.7-19.2V58.3H608.1z"/>
	<path class="st0" d="M669.1,78.6c0.9,8,7,12.9,14.6,12.9c6.8,0,11.2-3.2,14.6-7.3l9.7,7.3c-6.3,7.8-14.3,10.8-22.9,10.8
		c-16.4,0-29.4-11.4-29.4-28.4s13.1-28.4,29.4-28.4c15.1,0,25.4,10.6,25.4,29.5v3.7H669.1z M696.9,68.4c-0.1-7.9-5.3-12.9-13.8-12.9
		c-8,0-13,5.1-14,12.9H696.9z"/>
</g>
<g>
	<path class="st0" d="M196.5,139.8h12.3l34.4,79.9H227l-7.4-18.3h-34.6l-7.2,18.3h-15.9L196.5,139.8z M214.6,189.3l-12.3-32.5
		l-12.5,32.5H214.6z"/>
	<path class="st0" d="M250.3,165.6h12.9v8.5h0.2c2.4-5.1,7.6-9.8,16.6-9.8c8.3,0,14.1,3.3,16.9,10c3.9-6.9,9.7-10,17.8-10
		c14.4,0,19.5,10.3,19.5,23.2v32.3h-13.5V189c0-6.8-2-12.6-10-12.6c-8.5,0-11.6,7-11.6,14v29.3h-13.5v-32.3c0-6.7-2.7-11.1-9.3-11.1
		c-8.9,0-12.4,6.5-12.4,13.8v29.6h-13.5V165.6z"/>
	<path class="st0" d="M377.9,180.6c-2.6-3.6-6-5.5-10.6-5.5c-3.6,0-7.9,1.7-7.9,5.8c0,9.7,29.2,1.8,29.2,22.9
		c0,12.9-12.3,17.4-23.4,17.4c-8.3,0-15.6-2.1-21.1-8.3l9-8.5c3.5,3.8,7.1,6.7,12.9,6.7c3.9,0,9-1.9,9-6.2c0-11.2-29.2-2.4-29.2-23
		c0-12.1,10.8-17.5,21.8-17.5c7.2,0,14.9,2.3,19.3,8.2L377.9,180.6z"/>
	<path class="st0" d="M392.8,177.1v-11.5H404v-15.7h13.5v15.7h14.9v11.5h-14.9v23.7c0,5.4,1.6,8.8,7.6,8.8c2.4,0,5.6-0.5,7.3-1.7
		v11.4c-2.8,1.4-7.6,1.8-10.7,1.8c-14.3,0-17.7-6.4-17.7-19.2v-24.8H392.8z"/>
	<path class="st0" d="M453.9,197.4c0.9,8,7,12.9,14.6,12.9c6.8,0,11.2-3.2,14.6-7.3l9.7,7.3c-6.3,7.8-14.3,10.8-22.9,10.8
		c-16.4,0-29.5-11.4-29.5-28.4s13.1-28.4,29.5-28.4c15.1,0,25.4,10.6,25.4,29.5v3.7H453.9z M481.6,187.2
		c-0.1-7.9-5.3-12.9-13.8-12.9c-8,0-13,5.1-14,12.9H481.6z"/>
	<path class="st0" d="M507.8,165.6h13.5v8.6h0.2c2.9-6.2,8.9-9.9,16-9.9c1.7,0,3.3,0.3,4.9,0.8v13.1c-2.3-0.6-4.4-1-6.5-1
		c-12.8,0-14.6,10.7-14.6,13.7v29h-13.5V165.6z"/>
	<path class="st0" d="M592.6,211.6h-0.2c-4,6.5-11.1,9.5-18.6,9.5c-16.7,0-26.7-12.4-26.7-28.4s10.7-28.4,26.2-28.4
		c10.2,0,15.6,4.7,18.4,8.2h0.3v-38h13.5v85.3h-12.9V211.6z M576.5,208.9c9.9,0,15.9-7.8,15.9-16.2s-6-16.2-15.9-16.2
		c-9.9,0-15.9,7.8-15.9,16.2S566.6,208.9,576.5,208.9z"/>
	<path class="st0" d="M654.7,212.3h-0.3c-3.8,6.1-10.2,8.8-17.4,8.8c-10,0-19.7-5.5-19.7-16.2c0-17.6,20.5-18.8,34.1-18.8h3.4v-1.5
		c0-6.7-5.2-10.2-12.4-10.2c-5.6,0-10.8,2.3-14.4,5.6l-7.1-7.1c6-6.1,14.4-8.7,23-8.7c23.1,0,23.1,16.7,23.1,24.4v31.1h-12.2V212.3z
		 M653.9,195.5h-2.8c-7.4,0-20.3,0.6-20.3,8.3c0,5,5.1,7.1,9.5,7.1c9.3,0,13.7-4.9,13.7-12.4V195.5z"/>
	<path class="st0" d="M680.9,165.6h12.9v8.5h0.2c2.4-5.1,7.6-9.8,16.6-9.8c8.4,0,14.1,3.3,16.9,10c3.9-6.9,9.7-10,17.8-10
		c14.4,0,19.5,10.3,19.5,23.2v32.3h-13.5V189c0-6.8-2-12.6-10-12.6c-8.5,0-11.6,7-11.6,14v29.3h-13.5v-32.3c0-6.7-2.7-11.1-9.3-11.1
		c-8.9,0-12.4,6.5-12.4,13.8v29.6h-13.5V165.6z"/>
</g>
<polygon class="st0" points="14.7,330.5 44.7,300.5 14.7,270.5 34.7,250.5 64.7,280.5 94.7,250.5 114.7,270.5 84.7,300.5 
	114.7,330.5 94.7,350.5 64.7,320.5 34.7,350.5 "/>
<polygon class="st0" points="14.7,90.3 44.7,60.3 14.7,30.3 34.7,10.3 64.7,40.3 94.7,10.3 114.7,30.3 84.7,60.3 114.7,90.3 
	94.7,110.3 64.7,80.3 34.7,110.3 "/>
<polygon class="st0" points="14.7,210.5 44.7,180.5 14.7,150.5 34.7,130.5 64.7,160.5 94.7,130.5 114.7,150.5 84.7,180.5 
	114.7,210.5 94.7,230.5 64.7,200.5 34.7,230.5 "/>
</svg>
