<?xml version="1.0" encoding="utf-8"?>
<!-- Generator: Adobe Illustrator 22.0.0, SVG Export Plug-In . SVG Version: 6.00 Build 0)  -->
<svg version="1.1" id="Layer_1" xmlns="http://www.w3.org/2000/svg" xmlns:xlink="http://www.w3.org/1999/xlink" x="0px" y="0px"
	 viewBox="0 0 478.4 165.5" style="enable-background:new 0 0 478.4 165.5;" xml:space="preserve">
<style type="text/css">
	.st0{fill:#FFFFFF;}
</style>
<g>
	<path class="st0" d="M159.6,74.3c0,0.8,0,1.5,0,2.3c0,24.4,0,48.8,0,73.2c0,1.5-0.4,2.5-1.5,3.5c-2.5,2.4-4.9,4.9-7.4,7.3
		c-0.5,0.5-1.4,0.9-2.1,0.9c-12.2,0.1-24.3,0.1-36.5,0c-0.8,0-1.7-0.5-2.3-1.1c-9.9-9.9-19.9-19.8-29.8-29.7
		c-5.5-5.4-10.9-10.9-16.4-16.3c-0.5-0.5-1-0.8-2-1.5c0,1.2,0,1.8,0,2.5c0,11.5,0,23,0,34.5c0,1.3-0.4,2.3-1.3,3.2
		c-2.5,2.4-4.9,4.9-7.5,7.2c-0.7,0.6-1.8,1.1-2.7,1.1c-11.9,0.1-23.8,0.1-35.7,0c-0.8,0-1.9-0.4-2.5-1c-2.5-2.4-5-4.9-7.4-7.4
		c-0.5-0.6-1-1.5-1-2.3c0-44.9,0-89.8,0-134.7c0-0.8,0.4-1.7,1-2.3c2.4-2.6,5-5.1,7.5-7.6c0.5-0.5,1.4-0.9,2.2-0.9
		c12-0.1,24.1-0.1,36.1,0c0.8,0,1.9,0.5,2.5,1.1C68.3,21.7,83.6,37,98.9,52.3c0.6,0.6,1.2,1.1,1.8,1.7c0.2-0.1,0.3-0.1,0.5-0.2
		c0-0.7,0-1.3,0-2c0-11.6,0-23.2,0-34.7c0-1.3,0.3-2.2,1.2-3c2.6-2.5,5-5.1,7.6-7.5c0.6-0.6,1.6-1.1,2.5-1.1c12-0.1,23.9-0.1,35.9,0
		c0.8,0,1.9,0.5,2.5,1c2.9,2.8,5.8,5.7,8.9,8.8c1.4-1.4,2.7-2.7,4-4c2-2,3.6-4.7,6-5.6c2.4-1,5.5-0.3,8.3-0.3c9.6,0,19.1,0,28.7,0.1
		c1,0,2.2,0.5,3,1.2c2.6,2.4,5.1,5,7.5,7.6c0.6,0.6,1,1.7,1,2.5c0.1,5.4,0,10.9,0.1,16.3c0,0.8,0.3,1.9,0.8,2.4
		c6,6.1,12.1,12.2,18.2,18.3c0.2,0.2,0.4,0.3,0.8,0.6c0.5-0.4,1-0.8,1.4-1.2c5.6-5.6,11.1-11.2,16.7-16.7c1.2-1.2,1.7-2.4,1.7-4.1
		c-0.1-5.2-0.1-10.3,0-15.5c0-1,0.5-2.1,1.2-2.8c2.4-2.7,5-5.2,7.6-7.7c0.5-0.5,1.3-0.8,2-0.8c12.2,0,24.3-0.1,36.5,0
		c0.7,0,1.7,0.4,2.2,0.9c2.6,2.5,5.2,5.1,7.7,7.8c0.6,0.6,1,1.7,1,2.5c0.1,5.2,0,10.3,0,15.5c0,0.7,0,1.4,0,2.6
		c1-0.9,1.6-1.4,2.2-1.9c8.8-8.8,17.5-17.6,26.4-26.3c0.7-0.7,1.9-1.2,2.8-1.2c31.4-0.1,62.7-0.1,94.1,0c1,0,2.2,0.5,2.8,1.1
		c9.1,9,18.1,18,27.1,27.1c0.6,0.6,0.9,1.6,0.9,2.3c0.1,8.9,0.1,17.7,0,26.6c0,0.8-0.5,1.9-1.1,2.5c-2.5,2.6-5,5-7.6,7.5
		c-0.5,0.4-1.2,0.9-1.8,0.9c-15.8,0-31.6,0-47.6,0c0-3.2,0-6.3,0-9.6c-0.9,0-1.5-0.1-2.1-0.1c-11.8,0-23.5,0-35.3,0
		c-1.9,0-2.3,0.6-2.3,2.3c0.1,11.7,0.1,23.4,0,35.1c0,1.6,0.3,2.3,2.1,2.3c11.8-0.1,23.5-0.1,35.3,0c1.7,0,2.3-0.4,2.2-2.2
		c-0.1-2.5,0-5,0-7.9c0.7,0,1.3,0,1.9,0c15,0,30,0,45,0c0.9,0,2,0.5,2.7,1.1c2.6,2.4,5.1,4.9,7.6,7.5c0.5,0.6,1,1.5,1,2.3
		c0.1,8.9,0.1,17.9,0,26.8c0,0.8-0.5,1.9-1.1,2.5c-8.9,9-17.9,18-26.9,26.9c-0.6,0.6-1.7,1-2.5,1c-31.6,0.1-63.1,0.1-94.7,0
		c-0.9,0-2-0.5-2.7-1.1c-9-8.9-18-17.9-26.9-26.9c-0.7-0.7-1.1-1.9-1.1-2.8c-0.1-18,0-36.1,0-54.1c0-0.8,0-1.5,0-2.8
		c-0.9,0.7-1.6,1.1-2.1,1.6c-12.8,12.8-25.6,25.6-38.5,38.5c-2.6,2.6-5.2,5-7.7,7.7c-0.6,0.7-1.1,1.8-1.1,2.7
		c-0.1,8.7,0,17.5-0.1,26.2c0,1-0.5,2.1-1.2,2.8c-2.4,2.6-4.9,5-7.4,7.4c-0.6,0.5-1.5,1-2.3,1c-12.1,0.1-24.2,0.1-36.3,0
		c-0.8,0-1.7-0.4-2.3-1c-2.7-2.5-5.3-5.1-7.8-7.8c-0.6-0.6-1-1.6-1-2.5c-0.1-8.7,0-17.5-0.1-26.2c0-1-0.5-2.1-1.1-2.8
		c-9.6-9.7-19.4-19.3-29-28.9c-5.6-5.6-11.2-11.3-16.8-16.9c-0.5-0.5-1-0.9-1.5-1.3C160,74.2,159.8,74.2,159.6,74.3z"/>
	<path class="st0" d="M468.1,11c2-1.6,0.8-5.2,4.1-5.7c0.6,3.2,0.4,7.2-0.7,8.3c-0.1-2-0.2-3.7-0.2-5.4c-0.1,0-0.3-0.1-0.4-0.1
		c-0.5,1.3-1,2.7-1.5,4c-0.2,0.5-0.6,0.9-0.9,1.3c-0.4-0.5-0.9-0.9-1.1-1.4c-0.6-1.3-1-2.7-1.5-4c-0.2,0-0.4,0.1-0.6,0.1
		c0,1.7,0,3.5,0,5.4c-1.3-0.7-1.5-3.2-1-7.9c1.7-0.7,2.2,0.3,2.6,1.7C467,8.5,467.5,9.6,468.1,11z"/>
	<path class="st0" d="M462.4,6.2c-0.9,0.2-1.7,0.5-2.6,0.7c-0.2,2.1-0.3,4.3-0.5,6.4c0,0-0.6,0-1.1,0c0-2.1,0-4.2,0-6.3
		c-1.1-0.3-1.9-0.6-2.8-0.8c0-0.2,0.1-0.4,0.1-0.6c2.2,0,4.4,0,6.7,0C462.2,5.8,462.3,6,462.4,6.2z"/>
</g>
</svg>
