<?xml version="1.0" encoding="utf-8"?>
<!-- Generator: Adobe Illustrator 22.0.0, SVG Export Plug-In . SVG Version: 6.00 Build 0)  -->
<svg version="1.1" xmlns="http://www.w3.org/2000/svg" xmlns:xlink="http://www.w3.org/1999/xlink" x="0px" y="0px"
	 viewBox="0 0 1165.3 829.3" style="enable-background:new 0 0 1165.3 829.3;" xml:space="preserve">
<style type="text/css">
	.st0{fill:none;}
	.st1{fill:none;stroke:#000000;stroke-width:8.5039;stroke-linecap:round;stroke-miterlimit:10;}
	.st2{display:none;}
	.st3{fill:#FFD409;stroke:#000000;stroke-width:5.6693;stroke-miterlimit:10;}
	.st4{fill:#FF5570;stroke:#000000;stroke-width:5.6693;stroke-miterlimit:10;}
	.st5{fill:none;stroke:#000000;stroke-width:5.6693;stroke-miterlimit:10;}
	.st6{fill:url(#SVGID_3_);stroke:#000000;stroke-width:5.6693;stroke-linecap:round;stroke-linejoin:round;stroke-miterlimit:10;}
	.st7{fill:#00CAAC;stroke:#000000;stroke-width:5.6693;stroke-miterlimit:10;}
	.st8{fill:#2D2D2D;stroke:#000000;stroke-width:5.6693;stroke-miterlimit:10;}
	.st9{fill:#8C89FF;stroke:#000000;stroke-width:5.6693;stroke-miterlimit:10;}
	.st10{fill:#DBDBDB;stroke:#000000;stroke-width:5.6693;stroke-miterlimit:10;}
	.st11{fill:#0DBBFF;stroke:#000000;stroke-width:5.6693;stroke-miterlimit:10;}
	.st12{fill:#FFD409;stroke:#000000;stroke-width:8.5039;stroke-miterlimit:10;}
	.st13{fill:#FFFFFF;stroke:#000000;stroke-width:5.6693;stroke-miterlimit:10;}
	.st14{fill:#636363;stroke:#000000;stroke-width:5.6693;stroke-miterlimit:10;}
	.st15{fill:#777777;stroke:#000000;stroke-width:5.6693;stroke-miterlimit:10;}
	.st16{fill:#A8A8A8;stroke:#000000;stroke-width:5.6693;stroke-miterlimit:10;}
	.st17{fill:#662D91;stroke:#000000;stroke-width:5.6693;stroke-linecap:round;stroke-miterlimit:10;}
	.st18{fill:url(#SVGID_4_);stroke:#000000;stroke-width:5.6693;stroke-linecap:round;stroke-miterlimit:10;}
	.st19{fill:none;stroke:#000000;stroke-width:5.6693;stroke-miterlimit:10;stroke-dasharray:8.5039;}
	.st20{fill:none;stroke:#000000;stroke-width:5.6693;stroke-miterlimit:10;stroke-dasharray:11.3386;}
	.st21{fill:#00BA00;stroke:#000000;stroke-width:2.8346;stroke-miterlimit:10;}
	.st22{fill:none;stroke:#000000;stroke-width:2.8346;stroke-miterlimit:10;}
	.st23{fill:#1D1D1D;}
</style>
<pattern  x="202.5" y="548.3" width="49.5" height="33" patternUnits="userSpaceOnUse" id="SVGID_1_" viewBox="10.5 -43.5 49.5 33" style="overflow:visible;">
	<g>
		<rect x="10.5" y="-43.5" class="st0" width="49.5" height="33"/>
		<g>
			<rect x="10.5" y="-43.5" class="st0" width="49.5" height="33"/>
			<g>
				<rect x="10.5" y="-43.5" class="st0" width="49.5" height="33"/>
				<g>
					<rect x="10.5" y="-43.5" class="st0" width="49.5" height="33"/>
					<g>
						<circle cx="60" cy="-43.5" r="10"/>
						<path d="M60-34c-5.2,0-9.5-4.3-9.5-9.5S54.8-53,60-53s9.5,4.3,9.5,9.5S65.2-34,60-34 M60-33c5.8,0,10.5-4.7,10.5-10.5
							S65.8-54,60-54s-10.5,4.7-10.5,10.5S54.2-33,60-33L60-33z"/>
					</g>
					<g>
						<circle cx="10.5" cy="-43.5" r="10"/>
						<path d="M10.5-34C5.3-34,1-38.3,1-43.5S5.3-53,10.5-53s9.5,4.3,9.5,9.5S15.7-34,10.5-34 M10.5-33C16.3-33,21-37.7,21-43.5
							S16.3-54,10.5-54S0-49.3,0-43.5S4.7-33,10.5-33L10.5-33z"/>
					</g>
					<g>
						<circle cx="60" cy="-10.5" r="10"/>
						<path d="M60-1c-5.2,0-9.5-4.3-9.5-9.5S54.8-20,60-20s9.5,4.3,9.5,9.5S65.2-1,60-1 M60,0c5.8,0,10.5-4.7,10.5-10.5
							S65.8-21,60-21s-10.5,4.7-10.5,10.5S54.2,0,60,0L60,0z"/>
					</g>
					<g>
						<circle cx="35.2" cy="-27" r="10"/>
						<path d="M35.2-17.5c-5.2,0-9.5-4.3-9.5-9.5s4.3-9.5,9.5-9.5s9.5,4.3,9.5,9.5S40.5-17.5,35.2-17.5 M35.2-16.5
							c5.8,0,10.5-4.7,10.5-10.5S41-37.5,35.2-37.5S24.8-32.8,24.8-27S29.5-16.5,35.2-16.5L35.2-16.5z"/>
					</g>
					<g>
						<circle cx="10.5" cy="-10.5" r="10"/>
						<path d="M10.5-1C5.3-1,1-5.3,1-10.5S5.3-20,10.5-20s9.5,4.3,9.5,9.5S15.7-1,10.5-1 M10.5,0C16.3,0,21-4.7,21-10.5
							S16.3-21,10.5-21S0-16.3,0-10.5S4.7,0,10.5,0L10.5,0z"/>
					</g>
				</g>
			</g>
		</g>
	</g>
</pattern>
<pattern  x="202.5" y="548.3" width="50" height="50" patternUnits="userSpaceOnUse" id="SVGID_2_" viewBox="89.5 -139.6 50 50" style="overflow:visible;">
	<g>
		<rect x="89.5" y="-139.6" class="st0" width="50" height="50"/>
		<g>
			<rect x="89.5" y="-139.6" class="st0" width="50" height="50"/>
			<g>
				<rect x="89.5" y="-139.6" class="st0" width="50" height="50"/>
				<g>
					<rect x="89.5" y="-139.6" class="st0" width="50" height="50"/>
					<line class="st1" x1="224.8" y1="-104.3" x2="104.3" y2="-224.8"/>
					<line class="st1" x1="174.8" y1="-104.3" x2="54.3" y2="-224.8"/>
					<line class="st1" x1="124.8" y1="-104.3" x2="4.3" y2="-224.8"/>
					<line class="st1" x1="224.8" y1="-54.3" x2="104.3" y2="-174.8"/>
					<line class="st1" x1="174.8" y1="-54.3" x2="54.3" y2="-174.8"/>
					<line class="st1" x1="124.8" y1="-54.3" x2="4.3" y2="-174.8"/>
					<line class="st1" x1="224.8" y1="-4.3" x2="104.3" y2="-124.8"/>
					<line class="st1" x1="174.8" y1="-4.3" x2="54.3" y2="-124.8"/>
					<line class="st1" x1="124.8" y1="-4.3" x2="4.3" y2="-124.8"/>
				</g>
			</g>
		</g>
	</g>
</pattern>
<g id="Layer_1" class="st2">
	
		<image style="display:inline;overflow:visible;" width="1264" height="830" xlink:href="../../Screen Shot 2018-11-09 at 4.19.38 PM.png"  transform="matrix(1 0 0 1 -39.6336 -11.985)">
	</image>
</g>
<g id="Layer_2">
	<polygon class="st3" points="218.4,603.5 201.2,603.5 192.6,618.3 201.2,633.2 218.4,633.2 226.9,618.3 	"/>
	<circle class="st4" cx="132.3" cy="700.8" r="46.4"/>
	<g>
		<circle cx="48.4" cy="638.2" r="19.1"/>
	</g>
	<g>
		<line class="st5" x1="1145.4" y1="560.5" x2="1078.9" y2="560.5"/>
		<line class="st5" x1="1145.4" y1="575.4" x2="1127.3" y2="575.4"/>
		<line class="st5" x1="1112.1" y1="575.4" x2="1102.5" y2="575.4"/>
		<line class="st5" x1="1090" y1="575.4" x2="1078.9" y2="575.4"/>
		<line class="st5" x1="1145.4" y1="545.6" x2="1107.3" y2="545.6"/>
		<line class="st5" x1="1094.1" y1="545.6" x2="1078.9" y2="545.6"/>
	</g>
	<g>
		<line class="st5" x1="925.3" y1="682.1" x2="917.3" y2="674.2"/>
		<line class="st5" x1="901.1" y1="658" x2="909.1" y2="665.9"/>
		<line class="st5" x1="925.3" y1="658" x2="917.3" y2="665.9"/>
		<line class="st5" x1="901.1" y1="682.1" x2="909.1" y2="674.2"/>
	</g>
	<pattern  id="SVGID_3_" xlink:href="#SVGID_2_" patternTransform="matrix(0.3362 0 0 -0.3362 -7556.7305 -15668.0234)">
	</pattern>
	<circle class="st6" cx="82.7" cy="546.7" r="22.3"/>
	<g>
		<polygon class="st7" points="92.5,578.2 92.5,548.3 118.5,533.4 144.4,548.3 144.4,578.2 118.5,593.2 		"/>
	</g>
	<path class="st8" d="M713.1,807h-56c-2.8,0-5-2.2-5-5v-87.3c0-2.8,2.2-5,5-5h56c2.8,0,5,2.2,5,5V802
		C718.1,804.7,715.9,807,713.1,807z"/>
	<path class="st9" d="M646.5,807.1h-38.7c-2.8,0-5-2.2-5-5v-70.3c0-2.8,2.2-5,5-5h38.7c2.8,0,5,2.2,5,5v70.3
		C651.5,804.8,649.3,807.1,646.5,807.1z"/>
	<path class="st10" d="M597.3,807.1H521c-2.8,0-5-2.2-5-5V691c0-2.8,2.2-5,5-5h76.3c2.8,0,5,2.2,5,5v111.1
		C602.3,804.8,600,807.1,597.3,807.1z"/>
	<path class="st7" d="M752.1,807.1h-28.2c-2.8,0-5-2.2-5-5v-127c0-2.8,2.2-5,5-5h28.2c2.8,0,5,2.2,5,5v127
		C757.1,804.8,754.8,807.1,752.1,807.1z"/>
	<path class="st11" d="M790.3,807.1h-28.2c-2.8,0-5-2.2-5-5V699.2c0-2.8,3.1-6.9,5-5c7.7,7.7,28.2,30.1,28.2,30.1
		c1.5,1.5,5,4.5,5,9.8v68C795.3,804.8,793,807.1,790.3,807.1z"/>
	<line class="st3" x1="534.4" y1="702.4" x2="583.9" y2="702.4"/>
	<line class="st12" x1="613.6" y1="744.1" x2="622.1" y2="744.1"/>
	<line class="st3" x1="534.4" y1="743.7" x2="583.9" y2="743.7"/>
	<line class="st3" x1="534.4" y1="758.8" x2="583.9" y2="758.8"/>
	<line class="st3" x1="534.4" y1="774" x2="583.9" y2="774"/>
	<line class="st3" x1="534.4" y1="717.6" x2="583.9" y2="717.6"/>
	<line class="st12" x1="632.1" y1="744.1" x2="640.6" y2="744.1"/>
	<line class="st12" x1="613.6" y1="760.6" x2="622.1" y2="760.6"/>
	<line class="st12" x1="632.1" y1="760.6" x2="640.6" y2="760.6"/>
	<line class="st12" x1="613.6" y1="777.1" x2="622.1" y2="777.1"/>
	<line class="st12" x1="632.1" y1="777.1" x2="640.6" y2="777.1"/>
	<line class="st12" x1="779.1" y1="744.1" x2="787.5" y2="744.1"/>
	<line class="st12" x1="779.1" y1="760.6" x2="787.5" y2="760.6"/>
	<line class="st12" x1="779.1" y1="777.1" x2="787.5" y2="777.1"/>
	<line class="st12" x1="764.8" y1="744.1" x2="773.3" y2="744.1"/>
	<line class="st12" x1="764.8" y1="760.6" x2="773.3" y2="760.6"/>
	<line class="st12" x1="764.8" y1="777.1" x2="773.3" y2="777.1"/>
	<line class="st12" x1="764.8" y1="728.1" x2="773.3" y2="728.1"/>
	<line class="st3" x1="417.7" y1="659.1" x2="452.1" y2="659.1"/>
	<line class="st3" x1="728.5" y1="707" x2="745.8" y2="707"/>
	<line class="st3" x1="728.5" y1="733.2" x2="745.8" y2="733.2"/>
	<line class="st3" x1="728.5" y1="748.3" x2="745.8" y2="748.3"/>
	<line class="st3" x1="728.5" y1="691.9" x2="745.8" y2="691.9"/>
	<line class="st3" x1="728.5" y1="763.5" x2="745.8" y2="763.5"/>
	<line class="st3" x1="728.5" y1="778.6" x2="745.8" y2="778.6"/>
	<path class="st4" d="M511,807.1H388.2c-2.8,0-5-2.2-5-5v-74.6c0-2.8,2.2-5,5-5H511c2.8,0,5,2.2,5,5v74.6
		C516,804.8,513.7,807.1,511,807.1z"/>
	<path class="st13" d="M495.2,751.2H404c-0.6,0-1-0.5-1-1v-10.7c0-0.5,0.4-1,1-1h91.2c0.6,0,1,0.5,1,1v10.7
		C496.2,750.8,495.8,751.2,495.2,751.2z"/>
	<path class="st13" d="M495.2,776.1H404c-0.6,0-1-0.5-1-1v-10.7c0-0.5,0.4-1,1-1h91.2c0.6,0,1,0.5,1,1v10.7
		C496.2,775.6,495.8,776.1,495.2,776.1z"/>
	<path class="st13" d="M703.8,735.2h-37.4c-0.6,0-1-0.4-1-1v-10.7c0-0.5,0.4-1,1-1h37.4c0.6,0,1,0.5,1,1v10.7
		C704.8,734.8,704.4,735.2,703.8,735.2z"/>
	<path class="st13" d="M703.8,759.2h-37.4c-0.6,0-1-0.5-1-1v-10.7c0-0.6,0.4-1,1-1h37.4c0.6,0,1,0.4,1,1v10.7
		C704.8,758.7,704.4,759.2,703.8,759.2z"/>
	<path class="st13" d="M703.8,783.1h-37.4c-0.6,0-1-0.5-1-1v-10.7c0-0.5,0.4-1,1-1h37.4c0.6,0,1,0.5,1,1v10.7
		C704.8,782.7,704.4,783.1,703.8,783.1z"/>
	<path class="st14" d="M329.8,807.1h45.2c4.4,0,8-2.2,8-5V699.2c0-2.8-4.9-6.9-8-5c-12.4,7.7-45.2,30.1-45.2,30.1
		c-2.4,1.5-8,4.5-8,9.8v68C321.8,804.8,325.4,807.1,329.8,807.1z"/>
	<path class="st5" d="M346.8,750.4h-12.2c-0.5,0-1-0.5-1-1v-10.7c0-0.6,0.5-1,1-1h12.2c0.5,0,1,0.4,1,1v10.7
		C347.8,749.9,347.4,750.4,346.8,750.4z"/>
	<path class="st5" d="M371.6,763h-12.2c-0.6,0-1-0.5-1-1v-10.7c0-0.5,0.4-1,1-1h12.2c0.5,0,1,0.5,1,1V762
		C372.6,762.5,372.2,763,371.6,763z"/>
	<path class="st5" d="M346.8,783.5h-12.2c-0.5,0-1-0.5-1-1v-10.7c0-0.5,0.5-1,1-1h12.2c0.5,0,1,0.5,1,1v10.7
		C347.8,783.1,347.4,783.5,346.8,783.5z"/>
	<path class="st15" d="M896.9,807.1h-96.7c-2.8,0-5-2.2-5-5v-54.6c0-2.8,2.2-5,5-5h96.7c2.8,0,5,2.2,5,5v54.6
		C901.9,804.8,899.7,807.1,896.9,807.1z"/>
	<line class="st12" x1="822.2" y1="756.5" x2="830.9" y2="756.5"/>
	<line class="st12" x1="807.4" y1="756.5" x2="816.2" y2="756.5"/>
	<line class="st12" x1="851.6" y1="756.5" x2="860.3" y2="756.5"/>
	<line class="st12" x1="836.9" y1="756.5" x2="845.6" y2="756.5"/>
	<line class="st12" x1="881" y1="756.5" x2="889.7" y2="756.5"/>
	<line class="st12" x1="807.4" y1="773" x2="889.7" y2="773"/>
	<line class="st12" x1="866.3" y1="756.5" x2="875" y2="756.5"/>
	<line class="st12" x1="822.2" y1="789.5" x2="830.9" y2="789.5"/>
	<line class="st12" x1="807.4" y1="789.5" x2="816.2" y2="789.5"/>
	<line class="st12" x1="851.6" y1="789.5" x2="860.3" y2="789.5"/>
	<line class="st12" x1="836.9" y1="789.5" x2="845.6" y2="789.5"/>
	<line class="st12" x1="881" y1="789.5" x2="889.7" y2="789.5"/>
	<line class="st12" x1="866.3" y1="789.5" x2="875" y2="789.5"/>
	<line class="st3" x1="481.8" y1="634.3" x2="550.1" y2="634.3"/>
	<g>
		<line class="st5" x1="224" y1="707.9" x2="219.3" y2="703.3"/>
		<line class="st5" x1="209.8" y1="693.8" x2="214.5" y2="698.4"/>
		<line class="st5" x1="224" y1="693.8" x2="219.3" y2="698.4"/>
		<line class="st5" x1="209.8" y1="707.9" x2="214.5" y2="703.3"/>
	</g>
	<line class="st3" x1="776.4" y1="633.2" x2="798.6" y2="633.2"/>
	<path class="st16" d="M316.6,807.1h-38.7c-2.8,0-5-2.2-5-5v-95.6c0-2.8,2.2-5,5-5h38.7c2.8,0,5,2.2,5,5v95.6
		C321.6,804.8,319.3,807.1,316.6,807.1z"/>
	<path class="st17" d="M267.9,806.9h-73.6c-2.8,0-5-2.2-5-5v-49.4c0-2.8,2.2-5,5-5h73.6c2.8,0,5,2.2,5,5v49.4
		C272.9,804.6,270.6,806.9,267.9,806.9z"/>
	<path class="st3" d="M906.9,807.1c-2.8,0-5-2.2-5-5v-87.4c0-2.8,2.2-5,5-5h59.1v-10.5c0-2.8,5-6.9,8.1-5
		c12.6,7.7,45.8,30.1,45.8,30.1c2.5,1.5,8.1,4.5,8.1,9.8v68c0,2.8-3.7,5-8.1,5H906.9z"/>
	<path class="st13" d="M1000,769.5h-12.2c-0.5,0-1-0.5-1-1v-10.7c0-0.5,0.5-1,1-1h12.2c0.6,0,1,0.5,1,1v10.7
		C1001,769.1,1000.6,769.5,1000,769.5z"/>
	<path class="st13" d="M1000,748h-12.2c-0.5,0-1-0.4-1-1v-10.7c0-0.5,0.5-1,1-1h12.2c0.6,0,1,0.5,1,1V747
		C1001,747.5,1000.6,748,1000,748z"/>
	<path class="st13" d="M1000,791.6h-12.2c-0.5,0-1-0.5-1-1v-10.7c0-0.5,0.5-1,1-1h12.2c0.6,0,1,0.5,1,1v10.7
		C1001,791.2,1000.6,791.6,1000,791.6z"/>
	<path class="st13" d="M966.8,777.5h-51.2c-0.5,0-1-0.5-1-1v-8.4c0-0.6,0.5-1,1-1h51.2c0.5,0,1,0.4,1,1v8.4
		C967.8,777,967.3,777.5,966.8,777.5z"/>
	<path class="st13" d="M966.8,755.5h-51.2c-0.5,0-1-0.5-1-1v-8.4c0-0.5,0.5-1,1-1h51.2c0.5,0,1,0.5,1,1v8.4
		C967.8,755.1,967.3,755.5,966.8,755.5z"/>
	<path class="st13" d="M966.8,733.6h-51.2c-0.5,0-1-0.5-1-1v-8.4c0-0.5,0.5-1,1-1h51.2c0.5,0,1,0.5,1,1v8.4
		C967.8,733.2,967.3,733.6,966.8,733.6z"/>
	<g>
		<line class="st5" x1="304.9" y1="674.1" x2="298.4" y2="667.7"/>
		<line class="st5" x1="285.3" y1="654.6" x2="291.8" y2="660.9"/>
		<line class="st5" x1="304.9" y1="654.6" x2="298.4" y2="660.9"/>
		<line class="st5" x1="285.3" y1="674.1" x2="291.8" y2="667.7"/>
	</g>
	<line class="st3" x1="110.1" y1="626" x2="132.3" y2="626"/>
	<line class="st3" x1="29.3" y1="468.3" x2="56.7" y2="468.3"/>
	<g>
		<line class="st5" x1="99.8" y1="740.3" x2="30.6" y2="740.3"/>
		<line class="st5" x1="99.8" y1="755.8" x2="81" y2="755.8"/>
		<line class="st5" x1="65.1" y1="755.8" x2="55.1" y2="755.8"/>
		<line class="st5" x1="42.2" y1="755.8" x2="30.6" y2="755.8"/>
		<line class="st5" x1="99.8" y1="724.8" x2="60.2" y2="724.8"/>
		<line class="st5" x1="46.4" y1="724.8" x2="30.6" y2="724.8"/>
	</g>
	<g>
		<circle cx="190.8" cy="568.8" r="6.4"/>
	</g>
	<g>
		<line class="st5" x1="634.3" y1="625.4" x2="629.6" y2="620.8"/>
		<line class="st5" x1="620.1" y1="611.3" x2="624.8" y2="615.9"/>
		<line class="st5" x1="634.3" y1="611.3" x2="629.6" y2="615.9"/>
		<line class="st5" x1="620.1" y1="625.4" x2="624.8" y2="620.8"/>
	</g>
	<g>
		<circle cx="980.8" cy="625.1" r="16.3"/>
	</g>
	<circle class="st17" cx="1084.6" cy="693.9" r="47.7"/>
	<pattern  id="SVGID_4_" xlink:href="#SVGID_1_" patternTransform="matrix(0.8918 0 0 -0.8918 50.658 -30064.207)">
	</pattern>
	<circle class="st18" cx="1104.8" cy="641.1" r="33.9"/>
	<line class="st3" x1="998.9" y1="633.2" x2="1024" y2="633.2"/>
	<g>
		<circle cx="925.3" cy="588.6" r="6.7"/>
	</g>
	<g>
		<line class="st5" x1="204" y1="524.3" x2="199.5" y2="520"/>
		<line class="st5" x1="190.5" y1="511" x2="195" y2="515.3"/>
		<line class="st5" x1="204" y1="511" x2="199.5" y2="515.3"/>
		<line class="st5" x1="190.5" y1="524.3" x2="195" y2="520"/>
	</g>
	<g>
		<line class="st5" x1="1023.1" y1="588.7" x2="1018.4" y2="584.1"/>
		<line class="st5" x1="1008.9" y1="574.6" x2="1013.6" y2="579.2"/>
		<line class="st5" x1="1023.1" y1="574.6" x2="1018.4" y2="579.2"/>
		<line class="st5" x1="1008.9" y1="588.7" x2="1013.6" y2="584.1"/>
	</g>
	<g>
		<circle cx="684.1" cy="667.7" r="10.9"/>
	</g>
	<g>
		<line class="st5" x1="1154.1" y1="742.3" x2="1149.4" y2="737.7"/>
		<line class="st5" x1="1139.9" y1="728.2" x2="1144.6" y2="732.8"/>
		<line class="st5" x1="1154.1" y1="728.2" x2="1149.4" y2="732.8"/>
		<line class="st5" x1="1139.9" y1="742.3" x2="1144.6" y2="737.7"/>
	</g>
	<g>
		<line class="st3" x1="284.2" y1="716.2" x2="308.9" y2="716.2"/>
		<line class="st3" x1="284.2" y1="731.4" x2="308.9" y2="731.4"/>
		<line class="st3" x1="284.2" y1="746.5" x2="308.9" y2="746.5"/>
	</g>
	<line class="st3" x1="284.2" y1="762" x2="308.9" y2="762"/>
	<line class="st3" x1="284.2" y1="777.2" x2="308.9" y2="777.2"/>
	<line class="st12" x1="212.5" y1="787.2" x2="221.3" y2="787.2"/>
	<line class="st12" x1="197.8" y1="787.2" x2="206.6" y2="787.2"/>
	<line class="st12" x1="241.9" y1="787.2" x2="250.7" y2="787.2"/>
	<line class="st12" x1="227.2" y1="787.2" x2="236" y2="787.2"/>
	<line class="st12" x1="256.6" y1="787.2" x2="265.4" y2="787.2"/>
	<path class="st13" d="M261.9,771.1h-61.3c-0.6,0-1-0.5-1-1v-10.7c0-0.5,0.4-1,1-1h61.3c0.5,0,1,0.5,1,1v10.7
		C262.9,770.7,262.5,771.1,261.9,771.1z"/>
	<line class="st3" x1="112.3" y1="500.6" x2="130.2" y2="500.6"/>
	<polyline class="st19" points="836.6,726.7 836.6,625.1 986.9,625.1 	"/>
	<polyline class="st20" points="170.2,777.5 133.1,777.5 133.1,752.8 	"/>
	<polyline class="st19" points="352.4,678.6 352.4,618.3 246.3,618.3 	"/>
	<polyline class="st19" points="684.1,691.9 684.1,667.7 627.2,667.7 627.2,701.5 	"/>
	<g>
		<line class="st5" x1="187.5" y1="153.3" x2="179.5" y2="145.4"/>
		<line class="st5" x1="163.4" y1="129.3" x2="171.4" y2="137.1"/>
		<line class="st5" x1="187.5" y1="129.3" x2="179.5" y2="137.1"/>
		<line class="st5" x1="163.4" y1="153.3" x2="171.4" y2="145.4"/>
	</g>
	<line class="st3" x1="157.5" y1="331.4" x2="175.4" y2="331.4"/>
	<g>
		<line class="st5" x1="74" y1="279.7" x2="66" y2="271.9"/>
		<line class="st5" x1="49.8" y1="255.7" x2="57.8" y2="263.5"/>
		<line class="st5" x1="74" y1="255.7" x2="66" y2="263.5"/>
		<line class="st5" x1="49.8" y1="279.7" x2="57.8" y2="271.9"/>
	</g>
	<g>
		<line class="st5" x1="243.1" y1="269" x2="238.4" y2="264.4"/>
		<line class="st5" x1="228.9" y1="254.9" x2="233.6" y2="259.5"/>
		<line class="st5" x1="243.1" y1="254.9" x2="238.4" y2="259.5"/>
		<line class="st5" x1="228.9" y1="269" x2="233.6" y2="264.4"/>
	</g>
	<g>
		<line class="st5" x1="50.1" y1="121.6" x2="45.4" y2="117"/>
		<line class="st5" x1="35.9" y1="107.5" x2="40.6" y2="112.1"/>
		<line class="st5" x1="50.1" y1="107.5" x2="45.4" y2="112.1"/>
		<line class="st5" x1="35.9" y1="121.6" x2="40.6" y2="117"/>
	</g>
	<g>
		<circle cx="86.6" cy="395.2" r="6.7"/>
	</g>
	<g>
		<circle cx="154.5" cy="229.6" r="6.7"/>
	</g>
	<line class="st3" x1="65.5" y1="177.5" x2="74.5" y2="177.5"/>
	<line class="st3" x1="202.1" y1="427.6" x2="211" y2="427.6"/>
	<line class="st3" x1="994" y1="520" x2="1022.4" y2="520"/>
	<g>
		<circle cx="265.4" cy="513.3" r="11.2"/>
	</g>
	<g>
		<g>
			<circle class="st21" cx="307.7" cy="784" r="8.6"/>
		</g>
		<line class="st22" x1="307.7" y1="808.3" x2="307.7" y2="792.6"/>
	</g>
	<g>
		<g>
			<circle class="st21" cx="335.9" cy="784.1" r="8.6"/>
		</g>
		<line class="st22" x1="335.9" y1="808.4" x2="335.9" y2="792.7"/>
	</g>
	<g>
		<g>
			<circle class="st21" cx="39.1" cy="779.2" r="8.6"/>
		</g>
		<line class="st22" x1="39.1" y1="807.1" x2="39.1" y2="787.8"/>
	</g>
	<g>
		<g>
			<circle class="st21" cx="102.8" cy="787.8" r="8.6"/>
		</g>
		<line class="st22" x1="102.8" y1="806.1" x2="102.8" y2="796.4"/>
	</g>
	<g>
		<g>
			<circle class="st21" cx="580.7" cy="787.8" r="8.6"/>
		</g>
		<line class="st22" x1="580.7" y1="806.1" x2="580.7" y2="796.4"/>
	</g>
	<g>
		<g>
			<circle class="st21" cx="602.8" cy="784.1" r="8.6"/>
		</g>
		<line class="st22" x1="602.8" y1="808.4" x2="602.8" y2="792.7"/>
	</g>
	<g>
		<g>
			<circle class="st21" cx="718.9" cy="784.1" r="8.6"/>
		</g>
		<line class="st22" x1="718.9" y1="808.4" x2="718.9" y2="792.7"/>
	</g>
	<g>
		<g>
			<circle class="st21" cx="216.9" cy="784" r="8.6"/>
		</g>
		<line class="st22" x1="216.9" y1="808.3" x2="216.9" y2="792.6"/>
	</g>
	<g>
		<g>
			<circle class="st21" cx="925.3" cy="787.8" r="8.6"/>
		</g>
		<line class="st22" x1="925.3" y1="806.1" x2="925.3" y2="796.4"/>
	</g>
	<g>
		<g>
			<circle class="st21" cx="967.8" cy="784.1" r="8.6"/>
		</g>
		<line class="st22" x1="967.8" y1="808.4" x2="967.8" y2="792.7"/>
	</g>
	<g>
		<g>
			<circle class="st21" cx="1138.4" cy="781.7" r="8.6"/>
		</g>
		<line class="st22" x1="1138.4" y1="806" x2="1138.4" y2="790.3"/>
	</g>
	<g>
		<g>
			<circle class="st21" cx="1071.7" cy="787.8" r="8.6"/>
		</g>
		<line class="st22" x1="1071.7" y1="806.1" x2="1071.7" y2="796.4"/>
	</g>
	<line class="st3" x1="265.4" y1="110.5" x2="274.4" y2="110.5"/>
	<rect y="803.5" class="st23" width="1165.3" height="25.8"/>
	<line class="st3" x1="1129.2" y1="470.6" x2="1101.8" y2="470.6"/>
	<g>
		<line class="st5" x1="997" y1="143.6" x2="989" y2="151.4"/>
		<line class="st5" x1="1005.1" y1="135.2" x2="1013.1" y2="127.4"/>
		<line class="st5" x1="997" y1="135.2" x2="989" y2="127.4"/>
		<line class="st5" x1="1005.1" y1="143.6" x2="1013.1" y2="151.4"/>
	</g>
	<line class="st3" x1="983" y1="333.7" x2="965.1" y2="333.7"/>
	<g>
		<line class="st5" x1="1092.5" y1="274.2" x2="1084.5" y2="282"/>
		<line class="st5" x1="1100.7" y1="265.8" x2="1108.7" y2="258"/>
		<line class="st5" x1="1092.5" y1="265.8" x2="1084.5" y2="258"/>
		<line class="st5" x1="1100.7" y1="274.2" x2="1108.7" y2="282"/>
	</g>
	<g>
		<line class="st5" x1="922.9" y1="238.7" x2="918.2" y2="243.3"/>
		<line class="st5" x1="927.7" y1="233.8" x2="932.4" y2="229.2"/>
		<line class="st5" x1="922.9" y1="233.8" x2="918.2" y2="229.2"/>
		<line class="st5" x1="927.7" y1="238.7" x2="932.4" y2="243.3"/>
	</g>
	<g>
		<line class="st5" x1="1113.1" y1="119.3" x2="1108.4" y2="123.9"/>
		<line class="st5" x1="1117.9" y1="114.4" x2="1122.6" y2="109.8"/>
		<line class="st5" x1="1113.1" y1="114.4" x2="1108.4" y2="109.8"/>
		<line class="st5" x1="1117.9" y1="119.3" x2="1122.6" y2="123.9"/>
	</g>
	<g>
		<circle cx="1071.9" cy="397.5" r="6.7"/>
	</g>
	<g>
		<circle cx="1003.9" cy="231.9" r="6.7"/>
	</g>
	<line class="st3" x1="1093" y1="179.8" x2="1084" y2="179.8"/>
	<line class="st3" x1="956.4" y1="429.9" x2="947.4" y2="429.9"/>
	<line class="st3" x1="909.6" y1="107.5" x2="900.6" y2="107.5"/>
	<g>
		<circle cx="296.5" cy="177.5" r="6.7"/>
	</g>
	<g>
		<circle cx="845.6" cy="155.6" r="6.7"/>
	</g>
	<g>
		<line class="st5" x1="379.7" y1="110.8" x2="375" y2="106.2"/>
		<line class="st5" x1="365.5" y1="96.7" x2="370.2" y2="101.3"/>
		<line class="st5" x1="379.7" y1="96.7" x2="375" y2="101.3"/>
		<line class="st5" x1="365.5" y1="110.8" x2="370.2" y2="106.2"/>
	</g>
	<line class="st3" x1="773.5" y1="96.7" x2="764.6" y2="96.7"/>
</g>
</svg>
