<?xml version="1.0" encoding="utf-8"?>
<!-- Generator: Adobe Illustrator 22.0.0, SVG Export Plug-In . SVG Version: 6.00 Build 0)  -->
<svg version="1.1" id="Layer_1" xmlns="http://www.w3.org/2000/svg" xmlns:xlink="http://www.w3.org/1999/xlink" x="0px" y="0px"
	 viewBox="0 0 333.2 333.8" style="enable-background:new 0 0 333.2 333.8;" xml:space="preserve">
<style type="text/css">
	.st0{fill:#007EE6;}
</style>
<g>
	<circle class="st0" cx="166.6" cy="166.9" r="163.5"/>
	<g>
		<g>
			<path d="M193.8,90.3v2c0,8.8,0,17.7,0,26.5c0,6.6,3.9,10.4,10.4,10.4c9.1,0,18.1,0,27.2,0h1.8v1.7c0,41.3,0,75.2,0,101.9
				c0,6.8-3.8,10.6-10.6,10.6H110.3c-5.2,0-8.8-2.5-9.9-7.1c-0.2-1.1-0.4-2.3-0.3-3.5c0-44.1,0-88.3,0-132.3
				c0-6.5,3.9-10.3,10.3-10.3c22,0,59.8,0,82,0L193.8,90.3L193.8,90.3z M187.4,96.8c-0.5,0-0.8-0.1-1-0.1c-20.2,0-56.1,0-76.2,0
				c-2.5,0-3.7,1.3-3.7,3.9c0,44.2,0,88.5,0,132.7c0,2.9,0.9,3.9,3.9,3.9h111.9c3.1,0,4.1-1,4.1-4.2c0-24.6,0-56.4,0-95.6v-1.7h-1.8
				c-7.3,0-14.6,0.1-21.9-0.1c-4.3-0.1-8.1-1.8-11.1-5c-2.8-3.1-4.3-6.8-4.3-10.9C187.4,112,187.4,104.5,187.4,96.8z"/>
			<path d="M228.6,122.9h-9.8c-3.9,0-8,0-11.9,0c-3.9,0-6.7-2.6-6.7-6.5c-0.1-7.5,0-15,0-22.2L228.6,122.9z"/>
		</g>
		<g>
			<path d="M149.7,176.1h9.5v-19.4H174v19.4h9.6l-17,20.2L149.7,176.1z"/>
			<path d="M139.7,218.2c0-3.1,0-6,0-9c0-0.3,0.5-0.6,0.8-0.8c0.2-0.2,0.6,0,0.9,0c16.8,0,33.5,0,50.3,0c1.4,0,1.8,0.4,1.7,1.7
				c-0.1,2.7,0,5.3,0,8H139.7z"/>
		</g>
	</g>
</g>
</svg>
