<?xml version="1.0" encoding="utf-8"?>
<!-- Generator: Adobe Illustrator 22.0.0, SVG Export Plug-In . SVG Version: 6.00 Build 0)  -->
<svg version="1.1" id="Layer_1" xmlns="http://www.w3.org/2000/svg" xmlns:xlink="http://www.w3.org/1999/xlink" x="0px" y="0px"
	 viewBox="0 0 330.5 328.7" style="enable-background:new 0 0 330.5 328.7;" xml:space="preserve">
<style type="text/css">
	.st0{fill:#007EE6;}
	.st1{fill:#FFFFFF;}
</style>
<circle class="st0" cx="165.3" cy="164.4" r="163.5"/>
<g>
	<g>
		<path class="st1" d="M199.9,67.1v2.5c0,11.2,0,22.5,0,33.7c0,8.4,4.9,13.2,13.2,13.2c11.5,0,23,0,34.5,0h2.3v2.2
			c0,52.4,0,95.5,0,129.5c0,8.7-4.8,13.5-13.5,13.5H93.8c-6.6,0-11.2-3.2-12.6-9c-0.3-1.4-0.5-2.9-0.4-4.4c0-56,0-112.1,0-168.1
			c0-8.3,4.9-13.1,13.1-13.1c28,0,76,0,104.1,0L199.9,67.1L199.9,67.1z M191.8,75.3c-0.6,0-1-0.1-1.3-0.1c-25.6,0-71.2,0-96.8,0
			c-3.2,0-4.7,1.6-4.7,4.9c0,56.2,0,112.4,0,168.5c0,3.7,1.2,4.9,4.9,4.9h142.2c3.9,0,5.2-1.3,5.2-5.3c0-31.2,0-71.7,0-121.4v-2.2
			H239c-9.3,0-18.5,0.1-27.8-0.1c-5.5-0.1-10.3-2.3-14.1-6.4c-3.6-3.9-5.4-8.6-5.4-13.9C191.7,94.7,191.8,85.1,191.8,75.3z"/>
		<path class="st1" d="M244.1,108.5h-12.5c-5,0-10.1,0-15.1,0c-4.9,0-8.5-3.3-8.5-8.2c-0.1-9.5,0-19,0-28.2L244.1,108.5z"/>
	</g>
	<g>
		<path class="st1" d="M143.8,176.1h12v-24.7h18.8V176h12.2l-21.5,25.6L143.8,176.1z"/>
		<path class="st1" d="M131.1,229.4c0-3.9,0-7.6,0-11.4c0-0.4,0.6-0.8,1-1c0.3-0.2,0.8,0,1.1,0c21.3,0,42.6,0,63.9,0
			c1.8,0,2.3,0.5,2.2,2.2c-0.1,3.4,0,6.7,0,10.2L131.1,229.4z"/>
	</g>
</g>
</svg>
