<svg xmlns="http://www.w3.org/2000/svg" viewBox="0 0 930.67 339.4"><defs><style>.cls-1{fill:#f5f7e9}.cls-1,.cls-5{stroke:#000}.cls-1,.cls-2,.cls-4,.cls-5,.cls-6{stroke-miterlimit:10;stroke-width:1.8px}.cls-2,.cls-4,.cls-6{stroke:#010101}.cls-3{fill:#22b073}.cls-4{fill:none}.cls-5,.cls-6{fill:#fff}</style></defs><title>1</title><g id="Layer_2" data-name="Layer 2"><g id="graficos"><path class="cls-1" d="M682.79 76.86l-61.42-1.09a5.22 5.22 0 0 0-5.3 5.67 3.26 3.26 0 0 0 2.66 2.93l61.62 11 62.77 36.84"/><path class="cls-1" d="M672.21 48.5L584.87 47a14 14 0 0 0 11.51 12.63l72.66 13 81.58 47.88"/><path class="cls-1" d="M655.72 26.67l-87-8.13A14 14 0 0 0 579.26 32l71.47 18.48 77.74 53.9"/><path class="cls-1" d="M877 101.45l-129.75-77a18.26 18.26 0 0 0-9.94-5.33l-89-17.58L561 .91a14.06 14.06 0 0 0 11.65 12.51l72.8 12.25 82.09 47"/><path class="cls-1" d="M766.61 74.31L681.77 38a13.86 13.86 0 0 0-18.62 5.66 13.87 13.87 0 0 0 2 16l54.77 59.37a121.6 121.6 0 0 0 61.58 36.28l38 8.89 57.5-62.75"/><path class="cls-1" d="M929.37 132.52l-47.19-36.08-75.93 73.76 47.28 50.03 75.84-87.71z"/><circle class="cls-1" cx="839.87" cy="177.47" r="10"/><path class="cls-2" d="M757.06 69.56s-46.63-37.09-78.76-42.32c-25.94-4.21-32.91-2-32.91-2L668 38.57s5.81-5.8 14.22-.87zM871.63 106.68l-79.34 50.41 16.38 5.5 5.93-.5 57.03-55.41z"/><path class="cls-1" d="M265.54 76.86L327 75.77a5.22 5.22 0 0 1 5.3 5.67 3.25 3.25 0 0 1-2.66 2.93L268 95.42l-62.77 36.84"/><path class="cls-1" d="M276.12 48.5l87.34-1.5A14 14 0 0 1 352 59.58l-72.66 13-81.63 47.92"/><path class="cls-1" d="M292.61 26.67l87-8.13A14 14 0 0 1 369.07 32L297.6 50.49l-77.74 53.9"/><path class="cls-1" d="M71.32 101.45l129.76-77a18.19 18.19 0 0 1 9.92-5.36l89-17.58 87.36-.6a14.06 14.06 0 0 1-11.66 12.51l-72.8 12.25-82.09 47"/><path class="cls-1" d="M181.72 74.31L266.56 38a13.86 13.86 0 0 1 18.62 5.66 13.87 13.87 0 0 1-2 16l-54.77 59.37a121.6 121.6 0 0 1-61.58 36.28l-38 8.89-57.51-62.75"/><path class="cls-1" d="M18.96 132.52l47.19-36.08 75.93 73.76-47.28 50.03-75.84-87.71z"/><circle class="cls-1" cx="108.46" cy="177.47" r="10"/><path class="cls-2" d="M191.27 69.56S237.9 32.47 270 27.24c25.93-4.21 32.9-2 32.9-2l-22.54 13.33s-5.8-5.8-14.22-.87zM76.7 106.68l79.34 50.41-16.38 5.5-5.93-.5-57.03-55.41z"/><path class="cls-1" d="M163.28 338.36c0-172.34 139.7-312 312-312s312.09 139.64 312.09 312"/><path class="cls-3" d="M621.22 238.88s-3.83 43.75 42.34 44.31 61.68-40.44 50-74.34c-9.85-28.6-23-28.74-24.93-52.13s-17.21-25.46-25.07-24.31-27.2 5-26.82 37.57S621 214 621.22 238.88z"/><path class="cls-4" d="M660.14 189.07v148.09M660.14 236.52l21.91-27.72"/><path class="cls-5" d="M0 338.5h929.37"/><path class="cls-3" d="M307.4 280.42c0 11.57-8.15 20.94-18.2 20.94S271 292 271 280.42s8.15-36 18.2-36 18.2 24.44 18.2 36z"/><path class="cls-4" d="M287.2 269.16v67.58M287.2 290.81l10.62-12.65"/><path class="cls-6" d="M475.32 156.42l-156.03 48.44V338.5h312.07V204.86l-156.04-48.44z"/><path class="cls-6" d="M475.32 229.77A32.23 32.23 0 0 1 507.55 262v76.5h-64.46V262a32.23 32.23 0 0 1 32.23-32.23zM356.69 232.51h34.83v58.06h-34.83zM557.23 232.51h34.83v58.06h-34.83z"/><circle class="cls-4" cx="475.32" cy="204.7" r="8.64"/><path class="cls-2" d="M475.32 166.95l47.25 37.91h115.38l-43.96-61.53H356.65l-43.96 61.53h115.38l47.25-37.91z"/><path class="cls-6" d="M548.74 290.57h52.19v12.09h-52.19zM348.01 290.57h52.19v12.09h-52.19zM428.35 325.18h93.95v13.31h-93.95z"/><path class="cls-3" d="M557.23 288.8a9.34 9.34 0 1 1 18.68 0M575.91 288.8a9.34 9.34 0 0 1 18.68 0M355.43 288.8a9.34 9.34 0 0 1 18.68 0M374.11 288.8a9.34 9.34 0 0 1 18.68 0"/><path class="cls-6" d="M382.54 126.11h27.02v51.38h-27.02z"/></g></g></svg>
